# xmcd
#
# Track frame offsets:
# 150
# 15953
# 34194
# 50039
# 66902
# 90348
# 105746
# 124972
# 137435
# 154577
# 171895
# 189181
#
# Disc length: 2850 seconds
#
# Revision: 0
# Processed by: cddbd v1.5.2PL0 Copyright (c) Steve Scherf et al.
# Submitted via: Axialis_AX_CDPlayer 2.6
#
DISCID=930b200c
DTITLE=Billy Ray Cyrus - Love Songs
DYEAR=1900
DGENRE=
TTITLE0=She's Not Cryin' Anymore
TTITLE1=In The Heart Of A Woman
TTITLE2=I Am Here Now
TTITLE3=Never Thought I'd Fall In Love With You
TTITLE4=Only God Could Stop Me Loving You
TTITLE5=Missiny You
TTITLE6=Three Little Words
TTITLE7=A Heart With Your Name On It
TTITLE8=Somebody New
TTITLE9=Give My Heart To You
TTITLE10=It Won't Be The Last
TTITLE11=How Much
EXTD=www.brcspirit.com
EXTT0=
EXTT1=
EXTT2=
EXTT3=
EXTT4=
EXTT5=
EXTT6=
EXTT7=
EXTT8=
EXTT9=
EXTT10=
EXTT11=
PLAYORDER=
